<?xml version="1.0" encoding="utf-8"?>
<!-- Generator: Adobe Illustrator 21.0.0, SVG Export Plug-In . SVG Version: 6.00 Build 0)  -->
<svg version="1.1" id="Layer_1" xmlns="http://www.w3.org/2000/svg" xmlns:xlink="http://www.w3.org/1999/xlink" x="0px" y="0px"
	 viewBox="0 0 1440 900" style="enable-background:new 0 0 1440 900;" xml:space="preserve">
<style type="text/css">
	.st0{fill:#39B54A;}
	.st1{fill:#1A1A1A;}
	.st2{fill:#ED1C24;}
</style>
<polygon class="st0" points="-633,418.6 -778.5,516.8 -847,481.4 -778,547.1 "/>
<polygon class="st1" points="-825.3,486.1 -825.3,352.9 -693.5,352.9 -655.2,390.2 -655.2,427.1 -668.2,435.4 -668.2,390.9 
	-693.2,390.9 -693.2,366.9 -812.3,366.9 -812.3,493.5 "/>
<rect x="-765" y="349.4" transform="matrix(-1.836970e-16 1 -1 -1.836970e-16 -368.4194 1153.1523)" class="st1" width="8.5" height="86"/>
<rect x="-753.2" y="356.9" transform="matrix(-1.836970e-16 1 -1 -1.836970e-16 -337.2406 1160.7108)" class="st1" width="8.5" height="109.6"/>
<rect x="-753.2" y="376.3" transform="matrix(-1.836970e-16 1 -1 -1.836970e-16 -317.872 1180.0795)" class="st1" width="8.5" height="109.6"/>
<rect x="-765" y="408" transform="matrix(-1.836970e-16 1 -1 -1.836970e-16 -309.8411 1211.7307)" class="st1" width="8.5" height="86"/>
<g>
	<polygon class="st2" points="669,489.3 655,504.3 706,554.3 788.5,471.8 773.5,457.8 705.5,525.8 	"/>
	<path class="st1" d="M779.5,345.8h-90l-97,96l55,55l14-14l-40-41l74-74l40,40l39-40l44,45l-36,36l14,15l51-51L779.5,345.8z
		 M735.5,387.8l-22-22h43L735.5,387.8z"/>
</g>
</svg>
